<?xml version="1.0" encoding="UTF-8"?>
<svg xmlns="http://www.w3.org/2000/svg" width="192" height="59" viewBox="0 0 192 59" fill="none">
  <path d="M15.2575 37.7947H11.26L1 13.0522H5.21501L13.315 33.8797H13.42L21.4675 13.0522H25.5175L15.2575 37.7947Z" fill="black" stroke="black" stroke-width="0.225" stroke-miterlimit="10"></path>
  <path d="M31.2094 26.3725C31.3144 27.61 31.6219 28.7725 32.1244 29.86C32.6269 30.955 33.2944 31.8925 34.1194 32.6875C34.9444 33.4825 35.9044 34.105 36.9844 34.5625C38.0644 35.02 39.2344 35.2525 40.4944 35.2525C42.3994 35.2525 44.0494 34.825 45.4369 33.955C46.8244 33.085 47.8744 32.095 48.5944 30.97L51.3469 33.19C49.8319 35.0575 48.1669 36.4 46.3519 37.21C44.5369 38.02 42.5794 38.425 40.4944 38.425C38.6194 38.425 36.8869 38.1025 35.2819 37.45C33.6769 36.7975 32.3044 35.89 31.1494 34.7275C29.9944 33.565 29.0869 32.1925 28.4194 30.6025C27.7519 29.02 27.4219 27.2875 27.4219 25.42C27.4219 23.5525 27.7444 21.8275 28.3969 20.2375C29.0494 18.6475 29.9419 17.275 31.0969 16.1125C32.2519 14.95 33.6019 14.0425 35.1469 13.39C36.6919 12.7375 38.3644 12.415 40.1719 12.415C42.0769 12.415 43.7869 12.7525 45.3019 13.42C46.8169 14.0875 48.0844 14.98 49.1119 16.09C50.1394 17.2 50.9194 18.505 51.4594 20.005C51.9994 21.505 52.2694 23.095 52.2694 24.79V26.3725H31.2094ZM48.3844 23.515C48.3844 21.1525 47.6644 19.24 46.2244 17.7775C44.7844 16.315 42.7669 15.58 40.1794 15.58C39.0244 15.58 37.9144 15.7975 36.8344 16.24C35.7544 16.6825 34.8094 17.2675 33.9994 18.01C33.1894 18.7525 32.5444 19.6 32.0569 20.545C31.5694 21.4975 31.3294 22.48 31.3294 23.5075H48.3919L48.3844 23.515Z" fill="black" stroke="black" stroke-width="0.225" stroke-miterlimit="10"></path>
  <path d="M57.6843 20.77C57.6843 19.675 57.6543 18.565 57.6018 17.44C57.5493 16.315 57.5043 14.8525 57.4668 13.0525H60.9768V17.65H61.0818C61.3368 16.9825 61.6968 16.3375 62.1618 15.7225C62.6268 15.1075 63.1968 14.5525 63.8643 14.0575C64.5318 13.5625 65.3043 13.165 66.1893 12.865C67.0743 12.565 68.0718 12.415 69.1818 12.415C70.1868 12.415 71.0718 12.52 71.8293 12.73L71.1243 16.165C70.6593 15.9925 69.9693 15.9025 69.0693 15.9025C67.6968 15.9025 66.5343 16.1575 65.5593 16.6675C64.5843 17.1775 63.7743 17.83 63.1293 18.625C62.4843 19.42 62.0043 20.275 61.6968 21.19C61.3893 22.105 61.2393 22.99 61.2393 23.83V37.7875H57.6768V20.7625L57.6843 20.77Z" fill="black" stroke="black" stroke-width="0.225" stroke-miterlimit="10"></path>
  <path d="M91.7947 22.6223V21.9848C91.7947 17.7249 89.6347 15.5874 85.3147 15.5874C82.3597 15.5874 79.7872 16.5549 77.5897 18.4973L75.4297 16.0149C77.8072 13.6224 81.3697 12.4224 86.1247 12.4224C87.3472 12.4224 88.5322 12.6024 89.6647 12.9474C90.7972 13.2999 91.7797 13.8399 92.6047 14.5599C93.4297 15.2799 94.0972 16.1874 94.5997 17.2824C95.1022 18.3774 95.3572 19.6823 95.3572 21.1973V32.2448C95.3572 33.1973 95.4022 34.1948 95.4922 35.2298C95.5822 36.2723 95.6797 37.1273 95.7922 37.7948H92.3347C92.2297 37.1948 92.1472 36.5423 92.0947 35.8373C92.0422 35.1323 92.0122 34.4423 92.0122 33.7748H91.9072C90.8647 35.4323 89.6272 36.6173 88.2097 37.3448C86.7847 38.0648 85.0522 38.4248 82.9972 38.4248C81.8797 38.4248 80.7997 38.2748 79.7572 37.9748C78.7147 37.6748 77.7847 37.2173 76.9747 36.6023C76.1647 35.9873 75.5197 35.2298 75.0322 34.3298C74.5447 33.4298 74.3047 32.3798 74.3047 31.1873C74.3047 29.1773 74.8372 27.6023 75.8947 26.4548C76.9522 25.3073 78.2872 24.4523 79.8922 23.8898C81.4972 23.3273 83.2072 22.9748 85.0222 22.8323C86.8372 22.6898 88.5022 22.6223 90.0172 22.6223H91.8022H91.7947ZM89.9572 25.4798C89.0572 25.4798 87.9322 25.5248 86.5822 25.6148C85.2322 25.7048 83.9347 25.9148 82.6972 26.2523C81.4522 26.5898 80.3947 27.1073 79.5097 27.8123C78.6247 28.5173 78.1897 29.4848 78.1897 30.7223C78.1897 31.5323 78.3622 32.2298 78.6997 32.8073C79.0372 33.3848 79.5022 33.8648 80.0797 34.2323C80.6572 34.5998 81.2947 34.8698 81.9997 35.0273C82.7047 35.1848 83.4097 35.2673 84.1297 35.2673C85.4272 35.2673 86.5522 35.0573 87.5047 34.6298C88.4572 34.2098 89.2597 33.6323 89.9047 32.9123C90.5497 32.1923 91.0297 31.3448 91.3372 30.3773C91.6447 29.4098 91.7947 28.3748 91.7947 27.2873V25.4873H89.9572V25.4798Z" fill="black" stroke="black" stroke-width="0.225" stroke-miterlimit="10"></path>
  <path d="M119.544 18.865C118.929 17.95 118.074 17.17 116.979 16.54C115.884 15.9025 114.632 15.5875 113.229 15.5875C111.752 15.55 110.432 15.7825 109.262 16.2775C108.092 16.7725 107.094 17.4625 106.262 18.34C105.437 19.2175 104.807 20.2675 104.372 21.4825C103.937 22.6975 103.727 24.01 103.727 25.42C103.727 26.83 103.944 28.1425 104.372 29.3575C104.807 30.5725 105.437 31.6225 106.262 32.4999C107.087 33.3774 108.092 34.0674 109.262 34.5624C110.432 35.0574 111.752 35.2824 113.229 35.2524C114.632 35.2524 115.884 34.9374 116.979 34.2999C118.074 33.6624 118.929 32.8899 119.544 31.9749L122.462 34.1424C121.202 35.5899 119.777 36.6549 118.194 37.3374C116.612 38.0274 114.954 38.3874 113.229 38.4174C111.174 38.4549 109.322 38.1474 107.664 37.4949C106.007 36.8424 104.597 35.9349 103.427 34.7724C102.257 33.6099 101.364 32.2299 100.757 30.625C100.142 29.02 99.8418 27.2875 99.8418 25.42C99.8418 23.5525 100.149 21.82 100.757 20.215C101.372 18.61 102.257 17.23 103.427 16.0675C104.597 14.905 106.007 13.9975 107.664 13.345C109.322 12.6925 111.174 12.385 113.229 12.4225C114.954 12.46 116.612 12.82 118.194 13.5025C119.777 14.1925 121.202 15.2575 122.462 16.6975L119.544 18.865Z" fill="black" stroke="black" stroke-width="0.225" stroke-miterlimit="10"></path>
  <path d="M132.549 3.53499C132.549 4.27749 132.279 4.88499 131.739 5.35749C131.199 5.82999 130.607 6.06999 129.954 6.06999C129.302 6.06999 128.709 5.82999 128.169 5.35749C127.629 4.88499 127.359 4.26999 127.359 3.53499C127.359 2.8 127.629 2.185 128.169 1.7125C128.709 1.24 129.302 1 129.954 1C130.607 1 131.199 1.24 131.739 1.7125C132.279 2.185 132.549 2.8 132.549 3.53499ZM131.739 37.7874H128.177V13.0525H131.739V37.7949V37.7874Z" fill="black" stroke="black" stroke-width="0.225" stroke-miterlimit="10"></path>
  <path d="M152.702 16.2251H145.412V30.8126C145.412 31.7276 145.502 32.4776 145.682 33.0626C145.862 33.6476 146.117 34.0901 146.44 34.4126C146.762 34.7276 147.152 34.9526 147.602 35.0726C148.052 35.2001 148.547 35.2601 149.087 35.2601C149.702 35.2601 150.332 35.1701 150.977 34.9976C151.622 34.8251 152.222 34.5926 152.762 34.3076L152.927 37.5326C151.592 38.1326 149.995 38.4326 148.12 38.4326C147.437 38.4326 146.725 38.3426 145.99 38.1701C145.255 37.9901 144.58 37.6601 143.965 37.1651C143.35 36.6701 142.847 36.0026 142.45 35.1551C142.052 34.3076 141.857 33.1976 141.857 31.8251V16.2326H136.51V13.0601H141.857V6.07764H145.42V13.0526H152.71V16.2251H152.702Z" fill="black" stroke="black" stroke-width="0.225" stroke-miterlimit="10"></path>
  <path d="M168.971 33.5122L176.696 13.0522H181.016L168.378 44.2447C167.621 46.1497 166.661 47.6647 165.491 48.7897C164.321 49.9147 162.641 50.4847 160.443 50.4847C159.903 50.4847 159.356 50.4622 158.793 50.4322C158.231 50.3947 157.683 50.2897 157.143 50.1172L157.518 46.7347C158.276 47.1247 159.176 47.3197 160.218 47.3197C161.478 47.3197 162.468 46.9297 163.188 46.1572C163.908 45.3847 164.538 44.2897 165.078 42.8797L166.916 38.1247L156.551 13.0672H161.036L168.971 33.5272V33.5122Z" fill="black" stroke="black" stroke-width="0.225" stroke-miterlimit="10"></path>
  <path d="M182.606 38.1697C184.312 38.1697 185.696 36.7863 185.696 35.0797C185.696 33.3732 184.312 31.9897 182.606 31.9897C180.899 31.9897 179.516 33.3732 179.516 35.0797C179.516 36.7863 180.899 38.1697 182.606 38.1697Z" fill="#FF1C3D"></path>
  <path d="M111.463 45.4673H112.588V48.9473H112.618C112.925 48.5798 113.285 48.3023 113.69 48.0998C114.095 47.8973 114.545 47.7998 115.033 47.7998C115.558 47.7998 116.045 47.8898 116.48 48.0698C116.915 48.2498 117.29 48.4973 117.598 48.8123C117.905 49.1273 118.145 49.5023 118.318 49.9373C118.49 50.3723 118.58 50.8373 118.58 51.3473C118.58 51.8573 118.49 52.3298 118.318 52.7573C118.145 53.1848 117.905 53.5673 117.605 53.8823C117.305 54.1973 116.945 54.4448 116.533 54.6248C116.12 54.8048 115.678 54.8948 115.205 54.8948C114.598 54.8948 114.073 54.7598 113.615 54.4973C113.158 54.2348 112.828 53.9123 112.618 53.5223H112.588V54.7148H111.463V45.4748V45.4673ZM112.588 51.3398C112.588 51.6923 112.64 52.0223 112.753 52.3298C112.865 52.6298 113.023 52.8998 113.233 53.1248C113.443 53.3498 113.698 53.5298 113.99 53.6573C114.283 53.7848 114.613 53.8523 114.973 53.8523C115.333 53.8523 115.663 53.7848 115.963 53.6573C116.263 53.5298 116.51 53.3498 116.72 53.1248C116.93 52.8998 117.095 52.6373 117.2 52.3298C117.305 52.0223 117.365 51.6998 117.365 51.3398C117.365 50.9798 117.313 50.6573 117.2 50.3573C117.088 50.0573 116.93 49.7873 116.72 49.5623C116.51 49.3373 116.255 49.1573 115.963 49.0298C115.67 48.9023 115.34 48.8348 114.973 48.8348C114.605 48.8348 114.283 48.9023 113.99 49.0298C113.698 49.1573 113.443 49.3373 113.233 49.5623C113.023 49.7873 112.858 50.0498 112.753 50.3573C112.64 50.6573 112.588 50.9873 112.588 51.3398Z" fill="black"></path>
  <path d="M122.794 56.2522C122.682 56.5372 122.562 56.7997 122.442 57.0397C122.322 57.2797 122.179 57.4746 122.007 57.6471C121.842 57.8121 121.639 57.9471 121.399 58.0371C121.167 58.1271 120.882 58.1721 120.544 58.1721C120.379 58.1721 120.214 58.1646 120.034 58.1421C119.854 58.1196 119.689 58.0746 119.539 57.9996L119.682 57.0171C119.794 57.0621 119.914 57.0996 120.042 57.1071C120.169 57.1221 120.312 57.1296 120.477 57.1296C120.844 57.1296 121.107 57.0321 121.287 56.8296C121.467 56.6271 121.609 56.3572 121.737 56.0197L122.194 54.7522L119.404 47.9722H120.717L122.802 53.2597H122.832L124.834 47.9722H126.057L122.802 56.2522H122.794Z" fill="black"></path>
  <path d="M142.901 48.1372V49.2697H142.871C142.758 49.0522 142.616 48.8647 142.443 48.6997C142.271 48.5347 142.083 48.3997 141.873 48.2872C141.663 48.1822 141.438 48.0997 141.213 48.0472C140.988 47.9947 140.763 47.9722 140.531 47.9722C139.998 47.9722 139.518 48.0547 139.083 48.2122C138.648 48.3697 138.281 48.6022 137.973 48.9022C137.666 49.2022 137.426 49.5622 137.261 49.9972C137.088 50.4322 137.006 50.9197 137.006 51.4522C137.006 51.9397 137.088 52.3972 137.261 52.8097C137.433 53.2222 137.673 53.5822 137.981 53.8822C138.296 54.1822 138.663 54.4222 139.098 54.5872C139.533 54.7597 140.006 54.8422 140.531 54.8422C140.973 54.8422 141.408 54.7447 141.836 54.5422C142.263 54.3472 142.608 54.0322 142.871 53.6047H142.901V54.4522C142.901 54.8047 142.863 55.1347 142.788 55.4572C142.713 55.7797 142.578 56.0647 142.391 56.3122C142.203 56.5597 141.948 56.7622 141.618 56.9047C141.296 57.0472 140.883 57.1222 140.396 57.1222C139.908 57.1222 139.436 57.0246 139.046 56.8296L138.633 57.8571C139.158 58.0446 139.743 58.1421 140.396 58.1421C141.566 58.1421 142.458 57.8271 143.081 57.1972C143.696 56.5672 144.011 55.6522 144.011 54.4447V48.1147H142.908L142.901 48.1372ZM142.706 51.4222C142.706 51.7297 142.661 52.0222 142.563 52.2997C142.466 52.5772 142.323 52.8247 142.136 53.0347C142.046 53.1322 141.956 53.2222 141.851 53.2972C141.851 53.2972 141.843 53.3047 141.836 53.3122C141.836 53.3122 141.821 53.3197 141.821 53.3272C141.416 53.6647 140.906 53.8672 140.343 53.8672C139.038 53.8672 137.981 52.7647 137.981 51.4072C137.981 50.0497 139.038 48.9472 140.343 48.9472C140.861 48.9472 141.318 49.1122 141.723 49.3822C141.858 49.4722 141.993 49.6147 142.098 49.7347C142.293 49.9447 142.436 50.1922 142.541 50.4772C142.638 50.7472 142.691 51.0397 142.698 51.3547C142.698 51.3697 142.698 51.3922 142.698 51.4072C142.698 51.4072 142.698 51.4072 142.698 51.4147L142.706 51.4222Z" fill="black"></path>
  <path d="M152.569 50.0647C152.396 49.6372 152.164 49.2697 151.864 48.9622C151.564 48.6472 151.196 48.4072 150.769 48.2347C150.341 48.0622 149.861 47.9722 149.344 47.9722C148.864 47.9722 148.421 48.0697 148.016 48.2722C147.611 48.4672 147.266 48.7522 146.959 49.1047H146.929V48.1447H145.826V57.9996H146.929V53.5972H146.959C147.169 53.9722 147.491 54.2947 147.941 54.5497C148.391 54.8122 148.909 54.9397 149.509 54.9397C149.974 54.9397 150.409 54.8497 150.814 54.6772C151.219 54.5047 151.571 54.2572 151.871 53.9497C152.171 53.6422 152.404 53.2672 152.569 52.8472C152.734 52.4272 152.824 51.9622 152.824 51.4597C152.824 50.9572 152.741 50.4997 152.569 50.0722V50.0647ZM149.486 53.9122C149.096 53.9122 148.721 53.8147 148.391 53.6497C148.376 53.6497 148.369 53.6422 148.354 53.6347C148.076 53.5147 147.836 53.3422 147.641 53.1322C147.439 52.9222 147.289 52.6672 147.184 52.3822C147.079 52.0972 147.026 51.7822 147.026 51.4522C147.026 51.1147 147.079 50.8072 147.184 50.5222C147.289 50.2372 147.439 49.9897 147.641 49.7722C147.844 49.5622 148.076 49.4047 148.354 49.2622C148.369 49.2622 148.376 49.2547 148.384 49.2472C148.699 49.0822 149.089 48.9922 149.486 48.9922C150.844 48.9922 151.946 50.0947 151.946 51.4522C151.946 52.8097 150.844 53.9122 149.486 53.9122Z" fill="black"></path>
  <path d="M136.143 49.1346C136.383 48.8346 136.473 48.7146 136.735 48.3921C136.563 48.3096 136.735 48.3921 136.54 48.3021C136.12 48.1071 135.633 48.0396 135.115 48.0396C134.635 48.0396 134.193 48.1371 133.788 48.3396C133.383 48.5346 133.038 48.8195 132.73 49.172H132.7V48.2121H131.598V55.247H132.7V51.527C132.7 51.1745 132.753 50.852 132.865 50.5595C132.97 50.2595 133.135 50.0045 133.338 49.7795C133.548 49.5546 133.795 49.382 134.08 49.2545C134.095 49.2545 134.103 49.2471 134.118 49.2396C134.463 49.0671 134.845 48.9696 135.258 48.9696C135.535 48.9696 135.888 49.0521 136.135 49.1346H136.143Z" fill="black"></path>
  <path d="M187.855 12.79V13.2925H187.03V15.8875H186.407V13.2925H185.582V12.79H187.855Z" fill="#231F20"></path>
  <path d="M191.68 12.79V15.8875H191.057V13.8775L190.232 15.8875H189.76L188.927 13.8775V15.8875H188.305V12.79H189.01L189.992 15.0925L190.975 12.79H191.672H191.68Z" fill="#231F20"></path>
  <path d="M187.855 12.79V13.2925H187.03V15.8875H186.407V13.2925H185.582V12.79H187.855Z" fill="black"></path>
  <path d="M191.68 12.79V15.8875H191.057V13.8775L190.232 15.8875H189.76L188.927 13.8775V15.8875H188.305V12.79H189.01L189.992 15.0925L190.975 12.79H191.672H191.68Z" fill="black"></path>
</svg>
